# xmcd
#
# Track frame offsets:
#	150
#	39698
#	71134
#	110018
#	166324
#
# Disc length: 2958 seconds
# Revision: 1
# Processed by: cddbd v1.5.2PL0 Copyright (c) Steve Scherf et al.
# Submitted via: dBpowerAMP V12.0
#
DISCID=440b8c05
DTITLE=Lester Levenson - The Ultimate Goal Vol 01 CD 06
DYEAR=1972
DGENRE=Home Study
TTITLE0=The Key to Individual Freedom pt 1
TTITLE1=The Key to Individual Freedom pt 2
TTITLE2=The Key to Individual Freedom pt 3
TTITLE3=Lester's Discovery pt 1
TTITLE4=Lester's Discovery pt 2
EXTD=
EXTT0=
EXTT1=
EXTT2=
EXTT3=
EXTT4=
PLAYORDER=
